<?xml version="1.0" encoding="UTF-8"?>
<!DOCTYPE svg PUBLIC "-//W3C//DTD SVG 1.1//EN" "http://www.w3.org/Graphics/SVG/1.1/DTD/svg11.dtd">
<!-- Creator: CorelDRAW 2018 (64-Bit) -->
<svg xmlns="http://www.w3.org/2000/svg" xml:space="preserve" width="3300px" height="2550px" version="1.1" style="shape-rendering:geometricPrecision; text-rendering:geometricPrecision; image-rendering:optimizeQuality; fill-rule:evenodd; clip-rule:evenodd"
viewBox="0 0 3300 2550"
 xmlns:xlink="http://www.w3.org/1999/xlink">
 <defs>
  <style type="text/css">
   <![CDATA[
    .str1 {stroke:#FEFEFE;stroke-width:16.67;stroke-miterlimit:2.61313}
    .str0 {stroke:#373435;stroke-width:2.08;stroke-miterlimit:2.61313}
    .fil1 {fill:none}
    .fil0 {fill:#FEFEFE}
    .fil4 {fill:#FEFEFE}
    .fil7 {fill:#A9ABAE}
    .fil5 {fill:#4B4B4D}
    .fil6 {fill:#4B4B4D}
    .fil10 {fill:#EEF8FD}
    .fil3 {fill:#00AFEF}
    .fil9 {fill:#0098DA}
    .fil2 {fill:#3E4095}
    .fil12 {fill:url(#id26)}
    .fil8 {fill:url(#id27)}
    .fil11 {fill:url(#id28)}
   ]]>
  </style>
   <clipPath id="id0">
    <path d="M1809.99 804.07l0 1452.01 247.9 0 247.7 0 0 -1432.64 -247.7 -247.7 -247.9 228.33z"/>
   </clipPath>
     <mask id="id1">
  <linearGradient id="id2" gradientUnits="userSpaceOnUse" x1="1903.54" y1="1726.44" x2="1912.39" y2="2536.19">
   <stop offset="0" style="stop-opacity:1; stop-color:white"/>
   <stop offset="1" style="stop-opacity:0; stop-color:white"/>
  </linearGradient>
      <rect style="fill:url(#id2)" x="1809.99" y="575.74" width="247.9" height="1907.66"/>
     </mask>
     <mask id="id3">
  <linearGradient id="id4" gradientUnits="userSpaceOnUse" x1="2153.95" y1="744.41" x2="2162.37" y2="1676.07">
   <stop offset="0" style="stop-opacity:1; stop-color:white"/>
   <stop offset="1" style="stop-opacity:0; stop-color:white"/>
  </linearGradient>
      <rect style="fill:url(#id4)" x="2057.89" y="575.74" width="247.7" height="1927.03"/>
     </mask>
   <clipPath id="id5">
    <path d="M1482.48 26l327.51 327.51 0 450.56 0 1452.01 -328.95 0 -337.83 0 0 -660.18 0 -215.8 0 -1044.37 337.83 -311.17 1.44 1.44z"/>
   </clipPath>
     <mask id="id6">
  <linearGradient id="id7" gradientUnits="userSpaceOnUse" x1="1270.69" y1="1596.56" x2="1282.75" y2="2702.79">
   <stop offset="0" style="stop-opacity:1; stop-color:white"/>
   <stop offset="1" style="stop-opacity:0; stop-color:white"/>
  </linearGradient>
      <rect style="fill:url(#id7)" x="1143.2" y="24.56" width="337.84" height="2606.1"/>
     </mask>
     <mask id="id8">
  <linearGradient id="id9" gradientUnits="userSpaceOnUse" x1="1610.05" y1="255.61" x2="1621.23" y2="1523.9">
   <stop offset="0" style="stop-opacity:1; stop-color:white"/>
   <stop offset="1" style="stop-opacity:0; stop-color:white"/>
  </linearGradient>
      <rect style="fill:url(#id9)" x="1481.44" y="24.96" width="331.03" height="2625.38"/>
     </mask>
   <mask id="id10">
  <linearGradient id="id11" gradientUnits="userSpaceOnUse" x1="1440.27" y1="919.34" x2="1598.25" y2="1189.57">
   <stop offset="0" style="stop-opacity:1; stop-color:white"/>
   <stop offset="1" style="stop-opacity:0; stop-color:white"/>
  </linearGradient>
    <rect style="fill:url(#id11)" x="772.97" y="1416.05" width="372.34" height="849.34"/>
   </mask>
   <mask id="id12">
  <linearGradient id="id13" gradientUnits="userSpaceOnUse" x1="685.59" y1="2064.18" x2="1355.36" y2="1948.94">
   <stop offset="0" style="stop-opacity:1; stop-color:white"/>
   <stop offset="0.541176" style="stop-opacity:-33.1333; stop-color:white"/>
   <stop offset="1" style="stop-opacity:0; stop-color:white"/>
  </linearGradient>
    <rect style="fill:url(#id13)" x="748.82" y="1411.28" width="1464.44" height="920.81"/>
   </mask>
   <mask id="id14">
  <linearGradient id="id15" gradientUnits="userSpaceOnUse" x1="2297.69" y1="2139.4" x2="1962.81" y2="1877.14">
   <stop offset="0" style="stop-opacity:1; stop-color:white"/>
   <stop offset="0.631373" style="stop-opacity:0.501961; stop-color:white"/>
   <stop offset="1" style="stop-opacity:0; stop-color:white"/>
  </linearGradient>
    <rect style="fill:url(#id15)" x="748.82" y="1411.28" width="1464.44" height="920.81"/>
   </mask>
   <mask id="id16">
  <linearGradient id="id17" gradientUnits="userSpaceOnUse" x1="2841.6" y1="1006.5" x2="2155.27" y2="1295.87">
   <stop offset="0" style="stop-opacity:1; stop-color:white"/>
   <stop offset="0.529412" style="stop-opacity:-16.0667; stop-color:white"/>
   <stop offset="1" style="stop-opacity:0; stop-color:white"/>
  </linearGradient>
    <rect style="fill:url(#id17)" x="748.82" y="1411.28" width="1464.44" height="920.81"/>
   </mask>
   <mask id="id18">
  <linearGradient id="id19" gradientUnits="userSpaceOnUse" x1="1080.15" y1="2441.48" x2="1729.23" y2="2364.21">
   <stop offset="0" style="stop-opacity:1; stop-color:white"/>
   <stop offset="1" style="stop-opacity:0; stop-color:white"/>
  </linearGradient>
    <rect style="fill:url(#id19)" x="820.69" y="1910.73" width="1392.89" height="615.89"/>
   </mask>
   <mask id="id20">
  <linearGradient id="id21" gradientUnits="userSpaceOnUse" x1="1438.9" y1="905.17" x2="1596.88" y2="1175.41">
   <stop offset="0" style="stop-opacity:1; stop-color:white"/>
   <stop offset="1" style="stop-opacity:0; stop-color:white"/>
  </linearGradient>
    <rect style="fill:url(#id21)" x="2303.97" y="906.85" width="246.69" height="899.98"/>
   </mask>
   <mask id="id22">
  <linearGradient id="id23" gradientUnits="userSpaceOnUse" x1="698.13" y1="2050.02" x2="1362.16" y2="1934.78">
   <stop offset="0" style="stop-opacity:1; stop-color:white"/>
   <stop offset="0.541176" style="stop-opacity:0.501961; stop-color:white"/>
   <stop offset="1" style="stop-opacity:0; stop-color:white"/>
  </linearGradient>
    <rect style="fill:url(#id23)" x="2303.97" y="898.87" width="247.21" height="442.9"/>
   </mask>
   <mask id="id24">
  <linearGradient id="id25" gradientUnits="userSpaceOnUse" x1="2296.4" y1="2125.24" x2="1964.4" y2="1862.98">
   <stop offset="0" style="stop-opacity:1; stop-color:white"/>
   <stop offset="0.631373" style="stop-opacity:0.501961; stop-color:white"/>
   <stop offset="1" style="stop-opacity:0; stop-color:white"/>
  </linearGradient>
    <rect style="fill:url(#id25)" x="2303.97" y="898.87" width="247.21" height="442.9"/>
   </mask>
  <linearGradient id="id26" gradientUnits="userSpaceOnUse" x1="2305.15" y1="1120.32" x2="2550" y2="1120.32">
   <stop offset="0" style="stop-opacity:1; stop-color:#60B6E6"/>
   <stop offset="0.239216" style="stop-opacity:1; stop-color:#71BDE9"/>
   <stop offset="0.8" style="stop-opacity:1; stop-color:#87C4EB"/>
   <stop offset="0.901961" style="stop-opacity:1; stop-color:#85B0DE"/>
   <stop offset="1" style="stop-opacity:1; stop-color:#80ABDA"/>
  </linearGradient>
  <linearGradient id="id27" gradientUnits="userSpaceOnUse" x1="774.18" y1="1583.42" x2="2550.85" y2="1583.42">
   <stop offset="0" style="stop-opacity:1; stop-color:#0098DA"/>
   <stop offset="0.219608" style="stop-opacity:1; stop-color:#3E4095"/>
   <stop offset="0.411765" style="stop-opacity:1; stop-color:#0098DA"/>
   <stop offset="0.568627" style="stop-opacity:1; stop-color:#0098DA"/>
   <stop offset="0.709804" style="stop-opacity:1; stop-color:#3E4095"/>
   <stop offset="0.878431" style="stop-opacity:1; stop-color:#0098DA"/>
   <stop offset="1" style="stop-opacity:1; stop-color:#0098DA"/>
  </linearGradient>
  <linearGradient id="id28" gradientUnits="userSpaceOnUse" xlink:href="#id27" x1="772.82" y1="1569.25" x2="2549.49" y2="1569.25">
  </linearGradient>
 </defs>
 <g id="Layer_x0020_1">
  <metadata id="CorelCorpID_0Corel-Layer"/>
  <polygon class="fil0" points="1809.99,804.07 1809.99,2256.08 2057.89,2256.08 2305.59,2256.08 2305.59,823.44 2057.89,575.74 "/>
  <g style="clip-path:url(#id0)">
   <g id="_2501409383200">
    <rect class="fil1 str0" x="119.4" y="233.09" width="38.93" height="64.89"/>
    <rect class="fil1 str0" x="57.48" y="234.94" width="38.93" height="64.89"/>
    <line class="fil1" x1="-713.68" y1="628.87" x2="-713.68" y2= "2309.2" />
    <polygon class="fil2" points="-713.68,693.75 -713.68,628.87 -465.98,876.56 -465.98,941.45 "/>
    <polygon class="fil2" points="-713.68,770.63 -713.68,705.74 -465.98,953.44 -465.98,1018.33 "/>
    <polygon class="fil2" points="-713.68,847.51 -713.68,782.62 -465.98,1030.32 -465.98,1095.21 "/>
    <polygon class="fil2" points="-713.68,924.39 -713.68,859.5 -465.98,1107.2 -465.98,1172.09 "/>
    <polygon class="fil2" points="-713.68,1001.27 -713.68,936.38 -465.98,1184.08 -465.98,1248.96 "/>
    <polygon class="fil2" points="-713.68,1078.14 -713.68,1013.26 -465.98,1260.96 -465.98,1325.84 "/>
    <polygon class="fil2" points="-713.68,1155.02 -713.68,1090.14 -465.98,1337.83 -465.98,1402.72 "/>
    <polygon class="fil2" points="-713.68,1231.9 -713.68,1167.01 -465.98,1414.71 -465.98,1479.6 "/>
    <polygon class="fil2" points="-713.68,1308.78 -713.68,1243.89 -465.98,1491.59 -465.98,1556.48 "/>
    <polygon class="fil2" points="-713.68,1385.66 -713.68,1320.77 -465.98,1568.47 -465.98,1633.36 "/>
    <polygon class="fil2" points="-713.68,1462.54 -713.68,1397.65 -465.98,1645.35 -465.98,1710.23 "/>
    <polygon class="fil2" points="-713.68,1539.41 -713.68,1474.53 -465.98,1722.22 -465.98,1787.11 "/>
    <polygon class="fil2" points="-713.68,1616.29 -713.68,1551.41 -465.98,1799.1 -465.98,1863.99 "/>
    <polygon class="fil2" points="-713.68,1693.17 -713.68,1628.28 -465.98,1875.98 -465.98,1940.87 "/>
    <polygon class="fil2" points="-713.68,1770.05 -713.68,1705.16 -465.98,1952.86 -465.98,2017.75 "/>
    <polygon class="fil2" points="-713.68,1846.93 -713.68,1782.04 -465.98,2029.74 -465.98,2094.62 "/>
    <polygon class="fil2" points="-713.68,1923.8 -713.68,1858.92 -465.98,2106.62 -465.98,2171.5 "/>
    <polygon class="fil2" points="-713.68,2000.68 -713.68,1935.8 -465.98,2183.49 -465.98,2248.38 "/>
    <polygon class="fil2" points="-713.68,2077.56 -713.68,2012.67 -465.98,2260.37 -465.98,2325.26 "/>
    <polygon class="fil2" points="-713.68,2154.44 -713.68,2089.55 -465.98,2337.25 -465.98,2402.14 "/>
    <polygon class="fil2" points="-713.68,2231.32 -713.68,2166.43 -465.98,2414.13 -465.98,2479.02 "/>
    <polygon class="fil2" points="-713.68,2308.2 -713.68,2243.31 -465.98,2491.01 -465.98,2555.89 "/>
    <polygon class="fil2" points="-961.58,922.08 -961.58,857.19 -713.68,628.87 -713.68,693.75 "/>
    <polygon class="fil2" points="-961.58,998.96 -961.58,934.07 -713.68,705.74 -713.68,770.63 "/>
    <polygon class="fil2" points="-961.58,1075.83 -961.58,1010.95 -713.68,782.62 -713.68,847.51 "/>
    <polygon class="fil2" points="-961.58,1152.71 -961.58,1087.82 -713.68,859.5 -713.68,924.39 "/>
    <polygon class="fil2" points="-961.58,1229.59 -961.58,1164.7 -713.68,936.38 -713.68,1001.27 "/>
    <polygon class="fil2" points="-961.58,1306.47 -961.58,1241.58 -713.68,1013.26 -713.68,1078.14 "/>
    <polygon class="fil2" points="-961.58,1383.35 -961.58,1318.46 -713.68,1090.14 -713.68,1155.02 "/>
    <polygon class="fil2" points="-961.58,1460.23 -961.58,1395.34 -713.68,1167.01 -713.68,1231.9 "/>
    <polygon class="fil2" points="-961.58,1537.1 -961.58,1472.22 -713.68,1243.89 -713.68,1308.78 "/>
    <polygon class="fil2" points="-961.58,1613.98 -961.58,1549.09 -713.68,1320.77 -713.68,1385.66 "/>
    <polygon class="fil2" points="-961.58,1690.86 -961.58,1625.97 -713.68,1397.65 -713.68,1462.54 "/>
    <polygon class="fil2" points="-961.58,1767.74 -961.58,1702.85 -713.68,1474.53 -713.68,1539.41 "/>
    <polygon class="fil2" points="-961.58,1844.62 -961.58,1779.73 -713.68,1551.41 -713.68,1616.29 "/>
    <polygon class="fil2" points="-961.58,1921.49 -961.58,1856.61 -713.68,1628.28 -713.68,1693.17 "/>
    <polygon class="fil2" points="-961.58,1998.37 -961.58,1933.48 -713.68,1705.16 -713.68,1770.05 "/>
    <polygon class="fil2" points="-961.58,2075.25 -961.58,2010.36 -713.68,1782.04 -713.68,1846.93 "/>
    <polygon class="fil2" points="-961.58,2152.13 -961.58,2087.24 -713.68,1858.92 -713.68,1923.8 "/>
    <polygon class="fil2" points="-961.58,2229.01 -961.58,2164.12 -713.68,1935.8 -713.68,2000.68 "/>
    <polygon class="fil2" points="-961.58,2305.89 -961.58,2241 -713.68,2012.67 -713.68,2077.56 "/>
    <polygon class="fil2" points="-961.58,2382.76 -961.58,2317.88 -713.68,2089.55 -713.68,2154.44 "/>
    <polygon class="fil2" points="-961.58,2459.64 -961.58,2394.75 -713.68,2166.43 -713.68,2231.32 "/>
    <polygon class="fil2" points="-961.58,2536.52 -961.58,2471.63 -713.68,2243.31 -713.68,2308.2 "/>
    <line class="fil1" x1="2057.89" y1="575.74" x2="2057.89" y2= "2256.08" />
    <polygon class="fil3" points="2057.89,640.63 2057.89,575.74 2305.59,823.44 2305.59,888.33 "/>
    <polygon class="fil3" points="2057.89,717.51 2057.89,652.62 2305.59,900.32 2305.59,965.21 "/>
    <polygon class="fil3" points="2057.89,794.39 2057.89,729.5 2305.59,977.2 2305.59,1042.09 "/>
    <polygon class="fil3" points="2057.89,871.26 2057.89,806.38 2305.59,1054.08 2305.59,1118.96 "/>
    <polygon class="fil3" points="2057.89,948.14 2057.89,883.26 2305.59,1130.95 2305.59,1195.84 "/>
    <polygon class="fil3" points="2057.89,1025.02 2057.89,960.13 2305.59,1207.83 2305.59,1272.72 "/>
    <polygon class="fil3" points="2057.89,1101.9 2057.89,1037.01 2305.59,1284.71 2305.59,1349.6 "/>
    <polygon class="fil3" points="2057.89,1178.78 2057.89,1113.89 2305.59,1361.59 2305.59,1426.48 "/>
    <polygon class="fil3" points="2057.89,1255.66 2057.89,1190.77 2305.59,1438.47 2305.59,1503.35 "/>
    <polygon class="fil3" points="2057.89,1332.53 2057.89,1267.65 2305.59,1515.34 2305.59,1580.23 "/>
    <polygon class="fil3" points="2057.89,1409.41 2057.89,1344.52 2305.59,1592.22 2305.59,1657.11 "/>
    <polygon class="fil3" points="2057.89,1486.29 2057.89,1421.4 2305.59,1669.1 2305.59,1733.99 "/>
    <polygon class="fil3" points="2057.89,1563.17 2057.89,1498.28 2305.59,1745.98 2305.59,1810.87 "/>
    <polygon class="fil3" points="2057.89,1640.05 2057.89,1575.16 2305.59,1822.86 2305.59,1887.75 "/>
    <polygon class="fil3" points="2057.89,1716.92 2057.89,1652.04 2305.59,1899.74 2305.59,1964.62 "/>
    <polygon class="fil3" points="2057.89,1793.8 2057.89,1728.92 2305.59,1976.61 2305.59,2041.5 "/>
    <polygon class="fil3" points="2057.89,1870.68 2057.89,1805.79 2305.59,2053.49 2305.59,2118.38 "/>
    <polygon class="fil3" points="2057.89,1947.56 2057.89,1882.67 2305.59,2130.37 2305.59,2195.26 "/>
    <polygon class="fil3" points="2057.89,2024.44 2057.89,1959.55 2305.59,2207.25 2305.59,2272.14 "/>
    <polygon class="fil3" points="2057.89,2101.32 2057.89,2036.43 2305.59,2284.13 2305.59,2349.01 "/>
    <polygon class="fil3" points="2057.89,2178.19 2057.89,2113.31 2305.59,2361 2305.59,2425.89 "/>
    <polygon class="fil3" points="2057.89,2255.07 2057.89,2190.18 2305.59,2437.88 2305.59,2502.77 "/>
    <polygon class="fil3" points="1809.99,868.95 1809.99,804.07 2057.89,575.74 2057.89,640.63 "/>
    <polygon class="fil3" points="1809.99,945.83 1809.99,880.95 2057.89,652.62 2057.89,717.51 "/>
    <polygon class="fil3" points="1809.99,1022.71 1809.99,957.82 2057.89,729.5 2057.89,794.39 "/>
    <polygon class="fil3" points="1809.99,1099.59 1809.99,1034.7 2057.89,806.38 2057.89,871.26 "/>
    <polygon class="fil3" points="1809.99,1176.47 1809.99,1111.58 2057.89,883.26 2057.89,948.14 "/>
    <polygon class="fil3" points="1809.99,1253.35 1809.99,1188.46 2057.89,960.13 2057.89,1025.02 "/>
    <polygon class="fil3" points="1809.99,1330.22 1809.99,1265.34 2057.89,1037.01 2057.89,1101.9 "/>
    <polygon class="fil3" points="1809.99,1407.1 1809.99,1342.21 2057.89,1113.89 2057.89,1178.78 "/>
    <polygon class="fil3" points="1809.99,1483.98 1809.99,1419.09 2057.89,1190.77 2057.89,1255.66 "/>
    <polygon class="fil3" points="1809.99,1560.86 1809.99,1495.97 2057.89,1267.65 2057.89,1332.53 "/>
    <polygon class="fil3" points="1809.99,1637.74 1809.99,1572.85 2057.89,1344.52 2057.89,1409.41 "/>
    <polygon class="fil3" points="1809.99,1714.61 1809.99,1649.73 2057.89,1421.4 2057.89,1486.29 "/>
    <polygon class="fil3" points="1809.99,1791.49 1809.99,1726.61 2057.89,1498.28 2057.89,1563.17 "/>
    <polygon class="fil3" points="1809.99,1868.37 1809.99,1803.48 2057.89,1575.16 2057.89,1640.05 "/>
    <polygon class="fil3" points="1809.99,1945.25 1809.99,1880.36 2057.89,1652.04 2057.89,1716.92 "/>
    <polygon class="fil3" points="1809.99,2022.13 1809.99,1957.24 2057.89,1728.92 2057.89,1793.8 "/>
    <polygon class="fil3" points="1809.99,2099.01 1809.99,2034.12 2057.89,1805.79 2057.89,1870.68 "/>
    <polygon class="fil3" points="1809.99,2175.88 1809.99,2111 2057.89,1882.67 2057.89,1947.56 "/>
    <polygon class="fil3" points="1809.99,2252.76 1809.99,2187.87 2057.89,1959.55 2057.89,2024.44 "/>
    <polygon class="fil3" points="1809.99,2329.64 1809.99,2264.75 2057.89,2036.43 2057.89,2101.32 "/>
    <polygon class="fil3" points="1809.99,2406.52 1809.99,2341.63 2057.89,2113.31 2057.89,2178.19 "/>
    <polygon class="fil3" points="1809.99,2483.4 1809.99,2418.51 2057.89,2190.18 2057.89,2255.07 "/>
    <line class="fil1" x1="-730.86" y1="-1168.07" x2="-730.86" y2= "512.26" />
    <polygon class="fil3" points="-730.85,-1103.19 -730.85,-1168.07 -483.16,-920.38 -483.16,-855.49 "/>
    <polygon class="fil3" points="-730.85,-1026.31 -730.85,-1091.2 -483.16,-843.5 -483.16,-778.61 "/>
    <polygon class="fil3" points="-730.85,-949.43 -730.85,-1014.32 -483.16,-766.62 -483.16,-701.73 "/>
    <polygon class="fil3" points="-730.85,-872.55 -730.85,-937.44 -483.16,-689.74 -483.16,-624.85 "/>
    <polygon class="fil3" points="-730.85,-795.67 -730.85,-860.56 -483.16,-612.86 -483.16,-547.98 "/>
    <polygon class="fil3" points="-730.85,-718.8 -730.85,-783.68 -483.16,-535.98 -483.16,-471.1 "/>
    <polygon class="fil3" points="-730.85,-641.92 -730.85,-706.8 -483.16,-459.11 -483.16,-394.22 "/>
    <polygon class="fil3" points="-730.85,-565.04 -730.85,-629.93 -483.16,-382.23 -483.16,-317.34 "/>
    <polygon class="fil3" points="-730.85,-488.16 -730.85,-553.05 -483.16,-305.35 -483.16,-240.46 "/>
    <polygon class="fil3" points="-730.85,-411.28 -730.85,-476.17 -483.16,-228.47 -483.16,-163.59 "/>
    <polygon class="fil3" points="-730.85,-334.4 -730.85,-399.29 -483.16,-151.59 -483.16,-86.71 "/>
    <polygon class="fil3" points="-730.85,-257.53 -730.85,-322.41 -483.16,-74.72 -483.16,-9.83 "/>
    <polygon class="fil3" points="-730.85,-180.65 -730.85,-245.54 -483.16,2.16 -483.16,67.05 "/>
    <polygon class="fil3" points="-730.85,-103.77 -730.85,-168.66 -483.16,79.04 -483.16,143.93 "/>
    <polygon class="fil3" points="-730.85,-26.89 -730.85,-91.78 -483.16,155.92 -483.16,220.81 "/>
    <polygon class="fil3" points="-730.85,49.99 -730.85,-14.9 -483.16,232.8 -483.16,297.69 "/>
    <polygon class="fil3" points="-730.85,126.86 -730.85,61.98 -483.16,309.68 -483.16,374.56 "/>
    <polygon class="fil3" points="-730.85,203.74 -730.85,138.86 -483.16,386.55 -483.16,451.44 "/>
    <polygon class="fil3" points="-730.85,280.62 -730.85,215.73 -483.16,463.43 -483.16,528.32 "/>
    <polygon class="fil3" points="-730.85,357.5 -730.85,292.61 -483.16,540.31 -483.16,605.2 "/>
    <polygon class="fil3" points="-730.85,434.38 -730.85,369.49 -483.16,617.19 -483.16,682.08 "/>
    <polygon class="fil3" points="-730.85,511.26 -730.85,446.37 -483.16,694.07 -483.16,758.95 "/>
    <polygon class="fil3" points="-978.75,-874.86 -978.75,-939.75 -730.85,-1168.07 -730.85,-1103.19 "/>
    <polygon class="fil3" points="-978.75,-797.98 -978.75,-862.87 -730.85,-1091.2 -730.85,-1026.31 "/>
    <polygon class="fil3" points="-978.75,-721.11 -978.75,-785.99 -730.85,-1014.32 -730.85,-949.43 "/>
    <polygon class="fil3" points="-978.75,-644.23 -978.75,-709.11 -730.85,-937.44 -730.85,-872.55 "/>
    <polygon class="fil3" points="-978.75,-567.35 -978.75,-632.24 -730.85,-860.56 -730.85,-795.67 "/>
    <polygon class="fil3" points="-978.75,-490.47 -978.75,-555.36 -730.85,-783.68 -730.85,-718.8 "/>
    <polygon class="fil3" points="-978.75,-413.59 -978.75,-478.48 -730.85,-706.8 -730.85,-641.92 "/>
    <polygon class="fil3" points="-978.75,-336.72 -978.75,-401.6 -730.85,-629.93 -730.85,-565.04 "/>
    <polygon class="fil3" points="-978.75,-259.84 -978.75,-324.72 -730.85,-553.05 -730.85,-488.16 "/>
    <polygon class="fil3" points="-978.75,-182.96 -978.75,-247.85 -730.85,-476.17 -730.85,-411.28 "/>
    <polygon class="fil3" points="-978.75,-106.08 -978.75,-170.97 -730.85,-399.29 -730.85,-334.4 "/>
    <polygon class="fil3" points="-978.75,-29.2 -978.75,-94.09 -730.85,-322.41 -730.85,-257.53 "/>
    <polygon class="fil3" points="-978.75,47.68 -978.75,-17.21 -730.85,-245.54 -730.85,-180.65 "/>
    <polygon class="fil3" points="-978.75,124.55 -978.75,59.67 -730.85,-168.66 -730.85,-103.77 "/>
    <polygon class="fil3" points="-978.75,201.43 -978.75,136.54 -730.85,-91.78 -730.85,-26.89 "/>
    <polygon class="fil3" points="-978.75,278.31 -978.75,213.42 -730.85,-14.9 -730.85,49.99 "/>
    <polygon class="fil3" points="-978.75,355.19 -978.75,290.3 -730.85,61.98 -730.85,126.86 "/>
    <polygon class="fil3" points="-978.75,432.07 -978.75,367.18 -730.85,138.86 -730.85,203.74 "/>
    <polygon class="fil3" points="-978.75,508.95 -978.75,444.06 -730.85,215.73 -730.85,280.62 "/>
    <polygon class="fil3" points="-978.75,585.82 -978.75,520.94 -730.85,292.61 -730.85,357.5 "/>
    <polygon class="fil3" points="-978.75,662.7 -978.75,597.81 -730.85,369.49 -730.85,434.38 "/>
    <polygon class="fil3" points="-978.75,739.58 -978.75,674.69 -730.85,446.37 -730.85,511.26 "/>
    <path class="fil2" style="mask:url(#id1)" d="M2057.89 575.74l0 1680.34m-247.9 -1387.13l0 -64.88 247.9 -228.33 0 64.89 -247.9 228.32zm0 76.88l0 -64.88 247.9 -228.33 0 64.89 -247.9 228.32zm0 76.88l0 -64.89 247.9 -228.32 0 64.89 -247.9 228.32zm0 76.88l0 -64.89 247.9 -228.32 0 64.88 -247.9 228.33zm0 76.88l0 -64.89 247.9 -228.32 0 64.88 -247.9 228.33zm0 76.88l0 -64.89 247.9 -228.33 0 64.89 -247.9 228.33zm0 76.87l0 -64.88 247.9 -228.33 0 64.89 -247.9 228.32zm0 76.88l0 -64.89 247.9 -228.32 0 64.89 -247.9 228.32zm0 76.88l0 -64.89 247.9 -228.32 0 64.89 -247.9 228.32zm0 76.88l0 -64.89 247.9 -228.32 0 64.88 -247.9 228.33zm0 76.88l0 -64.89 247.9 -228.33 0 64.89 -247.9 228.33zm0 76.87l0 -64.88 247.9 -228.33 0 64.89 -247.9 228.32zm0 76.88l0 -64.88 247.9 -228.33 0 64.89 -247.9 228.32zm0 76.88l0 -64.89 247.9 -228.32 0 64.89 -247.9 228.32zm0 76.88l0 -64.89 247.9 -228.32 0 64.88 -247.9 228.33zm0 76.88l0 -64.89 247.9 -228.32 0 64.88 -247.9 228.33zm0 76.88l0 -64.89 247.9 -228.33 0 64.89 -247.9 228.33zm0 76.87l0 -64.88 247.9 -228.33 0 64.89 -247.9 228.32zm0 76.88l0 -64.89 247.9 -228.32 0 64.89 -247.9 228.32zm0 76.88l0 -64.89 247.9 -228.32 0 64.89 -247.9 228.32zm0 76.88l0 -64.89 247.9 -228.32 0 64.88 -247.9 228.33zm0 76.88l0 -64.89 247.9 -228.33 0 64.89 -247.9 228.33z"/>
    <path class="fil2" style="mask:url(#id3)" d="M2057.89 575.74l0 1680.34m0 -1615.45l0 -64.89 247.7 247.7 0 64.89 -247.7 -247.7zm0 76.88l0 -64.89 247.7 247.7 0 64.89 -247.7 -247.7zm0 76.88l0 -64.89 247.7 247.7 0 64.89 -247.7 -247.7zm0 76.87l0 -64.88 247.7 247.7 0 64.88 -247.7 -247.7zm0 76.88l0 -64.88 247.7 247.69 0 64.89 -247.7 -247.7zm0 76.88l0 -64.89 247.7 247.7 0 64.89 -247.7 -247.7zm0 76.88l0 -64.89 247.7 247.7 0 64.89 -247.7 -247.7zm0 76.88l0 -64.89 247.7 247.7 0 64.89 -247.7 -247.7zm0 76.88l0 -64.89 247.7 247.7 0 64.88 -247.7 -247.69zm0 76.87l0 -64.88 247.7 247.69 0 64.89 -247.7 -247.7zm0 76.88l0 -64.89 247.7 247.7 0 64.89 -247.7 -247.7zm0 76.88l0 -64.89 247.7 247.7 0 64.89 -247.7 -247.7zm0 76.88l0 -64.89 247.7 247.7 0 64.89 -247.7 -247.7zm0 76.88l0 -64.89 247.7 247.7 0 64.89 -247.7 -247.7zm0 76.87l0 -64.88 247.7 247.7 0 64.88 -247.7 -247.7zm0 76.88l0 -64.88 247.7 247.69 0 64.89 -247.7 -247.7zm0 76.88l0 -64.89 247.7 247.7 0 64.89 -247.7 -247.7zm0 76.88l0 -64.89 247.7 247.7 0 64.89 -247.7 -247.7zm0 76.88l0 -64.89 247.7 247.7 0 64.89 -247.7 -247.7zm0 76.88l0 -64.89 247.7 247.7 0 64.88 -247.7 -247.69zm0 76.87l0 -64.88 247.7 247.69 0 64.89 -247.7 -247.7zm0 76.88l0 -64.89 247.7 247.7 0 64.89 -247.7 -247.7z"/>
   </g>
  </g>
  <polygon class="fil1" points="1809.99,804.07 1809.99,2256.08 2057.89,2256.08 2305.59,2256.08 2305.59,823.44 2057.89,575.74 "/>
  <polygon class="fil4" points="1482.48,26 1809.99,353.51 1809.99,804.07 1809.99,2256.08 1481.04,2256.08 1143.21,2256.08 1143.21,1595.9 1143.21,1380.1 1143.21,335.73 1481.04,24.56 "/>
  <g style="clip-path:url(#id5)">
   <g id="_2501409093360">
    <rect class="fil1 str0" x="-501.21" y="44.75" width="38.93" height="64.89"/>
    <rect class="fil1 str0" x="-558.21" y="44.75" width="38.93" height="64.89"/>
    <g>
     <line class="fil1" x1="-1504.08" y1="674.94" x2="-1504.08" y2= "2906.46" />
     <polygon class="fil5" points="-1841.92,986.62 -1504.08,674.94 -1504.08,739.83 -1841.92,1051.58 "/>
     <polygon class="fil5" points="-1841.92,1063.5 -1504.08,751.82 -1504.08,816.71 -1841.92,1128.46 "/>
     <polygon class="fil5" points="-1841.92,1140.38 -1504.08,828.7 -1504.08,893.59 -1841.92,1205.34 "/>
     <polygon class="fil5" points="-1841.92,1217.25 -1504.08,905.58 -1504.08,970.47 -1841.92,1282.22 "/>
     <polygon class="fil5" points="-1841.92,1294.13 -1504.08,982.46 -1504.08,1047.34 -1841.92,1359.09 "/>
     <polygon class="fil5" points="-1841.92,1371.01 -1504.08,1059.34 -1504.08,1124.22 -1841.92,1435.97 "/>
     <polygon class="fil5" points="-1841.92,1447.89 -1504.08,1136.21 -1504.08,1201.1 -1841.92,1512.85 "/>
     <polygon class="fil5" points="-1841.92,1524.77 -1504.08,1213.09 -1504.08,1277.98 -1841.92,1589.73 "/>
     <polygon class="fil5" points="-1841.92,1601.64 -1504.08,1289.97 -1504.08,1354.86 -1841.92,1666.61 "/>
     <polygon class="fil5" points="-1841.92,1678.52 -1504.08,1366.85 -1504.08,1431.74 -1841.92,1743.48 "/>
     <polygon class="fil5" points="-1841.92,1755.4 -1504.08,1443.73 -1504.08,1508.61 -1841.92,1820.36 "/>
     <polygon class="fil5" points="-1841.92,1832.28 -1504.08,1520.6 -1504.08,1585.49 -1841.92,1897.24 "/>
     <polygon class="fil5" points="-1841.92,1909.16 -1504.08,1597.48 -1504.08,1662.37 -1841.92,1974.12 "/>
     <polygon class="fil5" points="-1841.92,1986.04 -1504.08,1674.36 -1504.08,1739.25 -1841.92,2051 "/>
     <polygon class="fil5" points="-1841.92,2062.91 -1504.08,1751.24 -1504.08,1816.13 -1841.92,2127.88 "/>
     <polygon class="fil5" points="-1841.92,2139.79 -1504.08,1828.12 -1504.08,1893 -1841.92,2204.75 "/>
     <polygon class="fil5" points="-1841.92,2216.67 -1504.08,1905 -1504.08,1969.88 -1841.92,2281.63 "/>
     <polygon class="fil5" points="-1841.92,2293.55 -1504.08,1981.87 -1504.08,2046.76 -1841.92,2358.51 "/>
     <polygon class="fil5" points="-1841.92,2370.43 -1504.08,2058.75 -1504.08,2123.64 -1841.92,2435.39 "/>
     <polygon class="fil5" points="-1841.92,2447.3 -1504.08,2135.63 -1504.08,2200.52 -1841.92,2512.27 "/>
     <polygon class="fil5" points="-1841.92,2524.18 -1504.08,2212.51 -1504.08,2277.4 -1841.92,2589.14 "/>
     <polygon class="fil5" points="-1841.92,2601.06 -1504.08,2289.39 -1504.08,2354.27 -1841.92,2666.02 "/>
     <polygon class="fil5" points="-1841.92,2677.94 -1504.08,2366.26 -1504.08,2431.15 -1841.92,2742.9 "/>
     <polygon class="fil5" points="-1841.92,2754.82 -1504.08,2443.14 -1504.08,2508.03 -1841.92,2819.78 "/>
     <polygon class="fil5" points="-1841.92,2831.7 -1504.08,2520.02 -1504.08,2584.91 -1841.92,2896.66 "/>
     <polygon class="fil5" points="-1841.92,2908.57 -1504.08,2596.9 -1504.08,2661.79 -1841.92,2973.54 "/>
     <polygon class="fil5" points="-1841.92,2985.45 -1504.08,2673.78 -1504.08,2738.66 -1841.92,3050.41 "/>
     <polygon class="fil5" points="-1841.92,3062.33 -1504.08,2750.66 -1504.08,2815.54 -1841.92,3127.29 "/>
     <polygon class="fil5" points="-1841.92,3139.21 -1504.08,2827.53 -1504.08,2892.42 -1841.92,3204.17 "/>
     <polygon class="fil5" points="-1841.92,3216.09 -1504.08,2904.41 -1504.08,2969.3 -1841.92,3281.05 "/>
    </g>
    <g>
     <polygon class="fil6" points="-1175.13,1003.89 -1504.08,674.94 -1504.08,739.83 -1175.13,1068.78 "/>
     <polygon class="fil6" points="-1175.13,1080.77 -1504.08,751.82 -1504.08,816.71 -1175.13,1145.66 "/>
     <polygon class="fil6" points="-1175.13,1157.65 -1504.08,828.7 -1504.08,893.59 -1175.13,1222.54 "/>
     <polygon class="fil6" points="-1175.13,1234.53 -1504.08,905.58 -1504.08,970.47 -1175.13,1299.41 "/>
     <polygon class="fil6" points="-1175.13,1311.41 -1504.08,982.46 -1504.08,1047.34 -1175.13,1376.29 "/>
     <polygon class="fil6" points="-1175.13,1388.28 -1504.08,1059.34 -1504.08,1124.22 -1175.13,1453.17 "/>
     <polygon class="fil6" points="-1175.13,1465.16 -1504.08,1136.21 -1504.08,1201.1 -1175.13,1530.05 "/>
     <polygon class="fil6" points="-1175.13,1542.04 -1504.08,1213.09 -1504.08,1277.98 -1175.13,1606.93 "/>
     <polygon class="fil6" points="-1175.13,1618.92 -1504.08,1289.97 -1504.08,1354.86 -1175.13,1683.81 "/>
     <polygon class="fil6" points="-1175.13,1695.8 -1504.08,1366.85 -1504.08,1431.74 -1175.13,1760.68 "/>
     <polygon class="fil6" points="-1175.13,1772.68 -1504.08,1443.73 -1504.08,1508.61 -1175.13,1837.56 "/>
     <polygon class="fil6" points="-1175.13,1849.55 -1504.08,1520.6 -1504.08,1585.49 -1175.13,1914.44 "/>
     <polygon class="fil6" points="-1175.13,1926.43 -1504.08,1597.48 -1504.08,1662.37 -1175.13,1991.32 "/>
     <polygon class="fil6" points="-1175.13,2003.31 -1504.08,1674.36 -1504.08,1739.25 -1175.13,2068.2 "/>
     <polygon class="fil6" points="-1175.13,2080.19 -1504.08,1751.24 -1504.08,1816.13 -1175.13,2145.08 "/>
     <polygon class="fil6" points="-1175.13,2157.07 -1504.08,1828.12 -1504.08,1893 -1175.13,2221.95 "/>
     <polygon class="fil6" points="-1175.13,2233.94 -1504.08,1905 -1504.08,1969.88 -1175.13,2298.83 "/>
     <polygon class="fil6" points="-1175.13,2310.82 -1504.08,1981.87 -1504.08,2046.76 -1175.13,2375.71 "/>
     <polygon class="fil6" points="-1175.13,2387.7 -1504.08,2058.75 -1504.08,2123.64 -1175.13,2452.59 "/>
     <polygon class="fil6" points="-1175.13,2464.58 -1504.08,2135.63 -1504.08,2200.52 -1175.13,2529.47 "/>
     <polygon class="fil6" points="-1175.13,2541.46 -1504.08,2212.51 -1504.08,2277.4 -1175.13,2606.34 "/>
     <polygon class="fil6" points="-1175.13,2618.34 -1504.08,2289.39 -1504.08,2354.27 -1175.13,2683.22 "/>
     <polygon class="fil6" points="-1175.13,2695.21 -1504.08,2366.26 -1504.08,2431.15 -1175.13,2760.1 "/>
     <polygon class="fil6" points="-1175.13,2772.09 -1504.08,2443.14 -1504.08,2508.03 -1175.13,2836.98 "/>
     <polygon class="fil6" points="-1175.13,2848.97 -1504.08,2520.02 -1504.08,2584.91 -1175.13,2913.86 "/>
     <polygon class="fil6" points="-1175.13,2925.85 -1504.08,2596.9 -1504.08,2661.79 -1175.13,2990.74 "/>
     <polygon class="fil6" points="-1175.13,3002.73 -1504.08,2673.78 -1504.08,2738.66 -1175.13,3067.61 "/>
     <polygon class="fil6" points="-1175.13,3079.6 -1504.08,2750.66 -1504.08,2815.54 -1175.13,3144.49 "/>
     <polygon class="fil6" points="-1175.13,3156.48 -1504.08,2827.53 -1504.08,2892.42 -1175.13,3221.37 "/>
     <polygon class="fil6" points="-1175.13,3233.36 -1504.08,2904.41 -1504.08,2969.3 -1175.13,3298.25 "/>
    </g>
    <g>
     <line class="fil1" x1="-1504.08" y1="-1933.74" x2="-1504.08" y2= "297.78" />
     <polygon class="fil7" points="-1841.92,-1622.07 -1504.08,-1933.74 -1504.08,-1868.85 -1841.92,-1557.1 "/>
     <polygon class="fil7" points="-1841.92,-1545.19 -1504.08,-1856.86 -1504.08,-1791.97 -1841.92,-1480.23 "/>
     <polygon class="fil7" points="-1841.92,-1468.31 -1504.08,-1779.98 -1504.08,-1715.1 -1841.92,-1403.35 "/>
     <polygon class="fil7" points="-1841.92,-1391.43 -1504.08,-1703.11 -1504.08,-1638.22 -1841.92,-1326.47 "/>
     <polygon class="fil7" points="-1841.92,-1314.55 -1504.08,-1626.23 -1504.08,-1561.34 -1841.92,-1249.59 "/>
     <polygon class="fil7" points="-1841.92,-1237.67 -1504.08,-1549.35 -1504.08,-1484.46 -1841.92,-1172.71 "/>
     <polygon class="fil7" points="-1841.92,-1160.8 -1504.08,-1472.47 -1504.08,-1407.58 -1841.92,-1095.84 "/>
     <polygon class="fil7" points="-1841.92,-1083.92 -1504.08,-1395.59 -1504.08,-1330.71 -1841.92,-1018.96 "/>
     <polygon class="fil7" points="-1841.92,-1007.04 -1504.08,-1318.71 -1504.08,-1253.83 -1841.92,-942.08 "/>
     <polygon class="fil7" points="-1841.92,-930.16 -1504.08,-1241.84 -1504.08,-1176.95 -1841.92,-865.2 "/>
     <polygon class="fil7" points="-1841.92,-853.28 -1504.08,-1164.96 -1504.08,-1100.07 -1841.92,-788.32 "/>
     <polygon class="fil7" points="-1841.92,-776.41 -1504.08,-1088.08 -1504.08,-1023.19 -1841.92,-711.44 "/>
     <polygon class="fil7" points="-1841.92,-699.53 -1504.08,-1011.2 -1504.08,-946.31 -1841.92,-634.57 "/>
     <polygon class="fil7" points="-1841.92,-622.65 -1504.08,-934.32 -1504.08,-869.44 -1841.92,-557.69 "/>
     <polygon class="fil7" points="-1841.92,-545.77 -1504.08,-857.45 -1504.08,-792.56 -1841.92,-480.81 "/>
     <polygon class="fil7" points="-1841.92,-468.89 -1504.08,-780.57 -1504.08,-715.68 -1841.92,-403.93 "/>
     <polygon class="fil7" points="-1841.92,-392.01 -1504.08,-703.69 -1504.08,-638.8 -1841.92,-327.05 "/>
     <polygon class="fil7" points="-1841.92,-315.14 -1504.08,-626.81 -1504.08,-561.92 -1841.92,-250.18 "/>
     <polygon class="fil7" points="-1841.92,-238.26 -1504.08,-549.93 -1504.08,-485.05 -1841.92,-173.3 "/>
     <polygon class="fil7" points="-1841.92,-161.38 -1504.08,-473.06 -1504.08,-408.17 -1841.92,-96.42 "/>
     <polygon class="fil7" points="-1841.92,-84.5 -1504.08,-396.18 -1504.08,-331.29 -1841.92,-19.54 "/>
     <polygon class="fil7" points="-1841.92,-7.62 -1504.08,-319.3 -1504.08,-254.41 -1841.92,57.34 "/>
     <polygon class="fil7" points="-1841.92,69.25 -1504.08,-242.42 -1504.08,-177.53 -1841.92,134.22 "/>
     <polygon class="fil7" points="-1841.92,146.13 -1504.08,-165.54 -1504.08,-100.65 -1841.92,211.09 "/>
     <polygon class="fil7" points="-1841.92,223.01 -1504.08,-88.66 -1504.08,-23.78 -1841.92,287.97 "/>
     <polygon class="fil7" points="-1841.92,299.89 -1504.08,-11.79 -1504.08,53.1 -1841.92,364.85 "/>
     <polygon class="fil7" points="-1841.92,376.77 -1504.08,65.09 -1504.08,129.98 -1841.92,441.73 "/>
     <polygon class="fil7" points="-1841.92,453.65 -1504.08,141.97 -1504.08,206.86 -1841.92,518.61 "/>
     <polygon class="fil7" points="-1841.92,530.52 -1504.08,218.85 -1504.08,283.74 -1841.92,595.48 "/>
     <polygon class="fil7" points="-1841.92,607.4 -1504.08,295.73 -1504.08,360.62 -1841.92,672.36 "/>
    </g>
    <g>
     <polygon class="fil7" points="-1175.13,-1604.79 -1504.08,-1933.74 -1504.08,-1868.85 -1175.13,-1539.9 "/>
     <polygon class="fil7" points="-1175.13,-1527.91 -1504.08,-1856.86 -1504.08,-1791.97 -1175.13,-1463.03 "/>
     <polygon class="fil7" points="-1175.13,-1451.04 -1504.08,-1779.98 -1504.08,-1715.1 -1175.13,-1386.15 "/>
     <polygon class="fil7" points="-1175.13,-1374.16 -1504.08,-1703.11 -1504.08,-1638.22 -1175.13,-1309.27 "/>
     <polygon class="fil7" points="-1175.13,-1297.28 -1504.08,-1626.23 -1504.08,-1561.34 -1175.13,-1232.39 "/>
     <polygon class="fil7" points="-1175.13,-1220.4 -1504.08,-1549.35 -1504.08,-1484.46 -1175.13,-1155.51 "/>
     <polygon class="fil7" points="-1175.13,-1143.52 -1504.08,-1472.47 -1504.08,-1407.58 -1175.13,-1078.63 "/>
     <polygon class="fil7" points="-1175.13,-1066.64 -1504.08,-1395.59 -1504.08,-1330.71 -1175.13,-1001.76 "/>
     <polygon class="fil7" points="-1175.13,-989.77 -1504.08,-1318.71 -1504.08,-1253.83 -1175.13,-924.88 "/>
     <polygon class="fil7" points="-1175.13,-912.89 -1504.08,-1241.84 -1504.08,-1176.95 -1175.13,-848 "/>
     <polygon class="fil7" points="-1175.13,-836.01 -1504.08,-1164.96 -1504.08,-1100.07 -1175.13,-771.12 "/>
     <polygon class="fil7" points="-1175.13,-759.13 -1504.08,-1088.08 -1504.08,-1023.19 -1175.13,-694.24 "/>
     <polygon class="fil7" points="-1175.13,-682.25 -1504.08,-1011.2 -1504.08,-946.31 -1175.13,-617.37 "/>
     <polygon class="fil7" points="-1175.13,-605.38 -1504.08,-934.32 -1504.08,-869.44 -1175.13,-540.49 "/>
     <polygon class="fil7" points="-1175.13,-528.5 -1504.08,-857.45 -1504.08,-792.56 -1175.13,-463.61 "/>
     <polygon class="fil7" points="-1175.13,-451.62 -1504.08,-780.57 -1504.08,-715.68 -1175.13,-386.73 "/>
     <polygon class="fil7" points="-1175.13,-374.74 -1504.08,-703.69 -1504.08,-638.8 -1175.13,-309.85 "/>
     <polygon class="fil7" points="-1175.13,-297.86 -1504.08,-626.81 -1504.08,-561.92 -1175.13,-232.97 "/>
     <polygon class="fil7" points="-1175.13,-220.98 -1504.08,-549.93 -1504.08,-485.05 -1175.13,-156.1 "/>
     <polygon class="fil7" points="-1175.13,-144.11 -1504.08,-473.06 -1504.08,-408.17 -1175.13,-79.22 "/>
     <polygon class="fil7" points="-1175.13,-67.23 -1504.08,-396.18 -1504.08,-331.29 -1175.13,-2.34 "/>
     <polygon class="fil7" points="-1175.13,9.65 -1504.08,-319.3 -1504.08,-254.41 -1175.13,74.54 "/>
     <polygon class="fil7" points="-1175.13,86.53 -1504.08,-242.42 -1504.08,-177.53 -1175.13,151.42 "/>
     <polygon class="fil7" points="-1175.13,163.41 -1504.08,-165.54 -1504.08,-100.65 -1175.13,228.29 "/>
     <polygon class="fil7" points="-1175.13,240.28 -1504.08,-88.66 -1504.08,-23.78 -1175.13,305.17 "/>
     <polygon class="fil7" points="-1175.13,317.16 -1504.08,-11.79 -1504.08,53.1 -1175.13,382.05 "/>
     <polygon class="fil7" points="-1175.13,394.04 -1504.08,65.09 -1504.08,129.98 -1175.13,458.93 "/>
     <polygon class="fil7" points="-1175.13,470.92 -1504.08,141.97 -1504.08,206.86 -1175.13,535.81 "/>
     <polygon class="fil7" points="-1175.13,547.8 -1504.08,218.85 -1504.08,283.74 -1175.13,612.69 "/>
     <polygon class="fil7" points="-1175.13,624.68 -1504.08,295.73 -1504.08,360.62 -1175.13,689.56 "/>
    </g>
    <g>
     <line class="fil1" x1="1482.48" y1="26" x2="1482.48" y2= "2257.51" />
     <polygon class="fil7" points="1144.64,337.67 1482.48,26 1482.48,90.88 1144.64,402.63 "/>
     <polygon class="fil7" points="1144.64,414.55 1482.48,102.87 1482.48,167.76 1144.64,479.51 "/>
     <polygon class="fil7" points="1144.64,491.43 1482.48,179.75 1482.48,244.64 1144.64,556.39 "/>
     <polygon class="fil7" points="1144.64,568.31 1482.48,256.63 1482.48,321.52 1144.64,633.27 "/>
     <polygon class="fil7" points="1144.64,645.18 1482.48,333.51 1482.48,398.4 1144.64,710.14 "/>
     <polygon class="fil7" points="1144.64,722.06 1482.48,410.39 1482.48,475.27 1144.64,787.02 "/>
     <polygon class="fil7" points="1144.64,798.94 1482.48,487.26 1482.48,552.15 1144.64,863.9 "/>
     <polygon class="fil7" points="1144.64,875.82 1482.48,564.14 1482.48,629.03 1144.64,940.78 "/>
     <polygon class="fil7" points="1144.64,952.7 1482.48,641.02 1482.48,705.91 1144.64,1017.66 "/>
     <polygon class="fil7" points="1144.64,1029.57 1482.48,717.9 1482.48,782.79 1144.64,1094.54 "/>
     <polygon class="fil7" points="1144.64,1106.45 1482.48,794.78 1482.48,859.67 1144.64,1171.41 "/>
     <polygon class="fil7" points="1144.64,1183.33 1482.48,871.66 1482.48,936.54 1144.64,1248.29 "/>
     <polygon class="fil7" points="1144.64,1260.21 1482.48,948.54 1482.48,1013.42 1144.64,1325.17 "/>
     <polygon class="fil7" points="1144.64,1337.09 1482.48,1025.41 1482.48,1090.3 1144.64,1402.05 "/>
     <polygon class="fil7" points="1144.64,1413.96 1482.48,1102.29 1482.48,1167.18 1144.64,1478.93 "/>
     <polygon class="fil7" points="1144.64,1490.84 1482.48,1179.17 1482.48,1244.06 1144.64,1555.8 "/>
     <polygon class="fil7" points="1144.64,1567.72 1482.48,1256.05 1482.48,1320.93 1144.64,1632.68 "/>
     <polygon class="fil7" points="1144.64,1644.6 1482.48,1332.93 1482.48,1397.81 1144.64,1709.56 "/>
     <polygon class="fil7" points="1144.64,1721.48 1482.48,1409.8 1482.48,1474.69 1144.64,1786.44 "/>
     <polygon class="fil7" points="1144.64,1798.36 1482.48,1486.68 1482.48,1551.57 1144.64,1863.32 "/>
     <polygon class="fil7" points="1144.64,1875.24 1482.48,1563.56 1482.48,1628.45 1144.64,1940.2 "/>
     <polygon class="fil7" points="1144.64,1952.11 1482.48,1640.44 1482.48,1705.33 1144.64,2017.07 "/>
     <polygon class="fil7" points="1144.64,2028.99 1482.48,1717.32 1482.48,1782.2 1144.64,2093.95 "/>
     <polygon class="fil7" points="1144.64,2105.87 1482.48,1794.19 1482.48,1859.08 1144.64,2170.83 "/>
     <polygon class="fil7" points="1144.64,2182.75 1482.48,1871.07 1482.48,1935.96 1144.64,2247.71 "/>
     <polygon class="fil7" points="1144.64,2259.63 1482.48,1947.95 1482.48,2012.84 1144.64,2324.59 "/>
     <polygon class="fil7" points="1144.64,2336.5 1482.48,2024.83 1482.48,2089.72 1144.64,2401.47 "/>
     <polygon class="fil7" points="1144.64,2413.38 1482.48,2101.71 1482.48,2166.6 1144.64,2478.34 "/>
     <polygon class="fil7" points="1144.64,2490.26 1482.48,2178.59 1482.48,2243.47 1144.64,2555.22 "/>
     <polygon class="fil7" points="1144.64,2567.14 1482.48,2255.46 1482.48,2320.35 1144.64,2632.1 "/>
    </g>
    <g>
     <polygon class="fil7" points="1811.43,354.94 1482.48,26 1482.48,90.88 1811.43,419.83 "/>
     <polygon class="fil7" points="1811.43,431.82 1482.48,102.87 1482.48,167.76 1811.43,496.71 "/>
     <polygon class="fil7" points="1811.43,508.7 1482.48,179.75 1482.48,244.64 1811.43,573.59 "/>
     <polygon class="fil7" points="1811.43,585.58 1482.48,256.63 1482.48,321.52 1811.43,650.47 "/>
     <polygon class="fil7" points="1811.43,662.46 1482.48,333.51 1482.48,398.4 1811.43,727.35 "/>
     <polygon class="fil7" points="1811.43,739.34 1482.48,410.39 1482.48,475.27 1811.43,804.22 "/>
     <polygon class="fil7" points="1811.43,816.21 1482.48,487.26 1482.48,552.15 1811.43,881.1 "/>
     <polygon class="fil7" points="1811.43,893.09 1482.48,564.14 1482.48,629.03 1811.43,957.98 "/>
     <polygon class="fil7" points="1811.43,969.97 1482.48,641.02 1482.48,705.91 1811.43,1034.86 "/>
     <polygon class="fil7" points="1811.43,1046.85 1482.48,717.9 1482.48,782.79 1811.43,1111.74 "/>
     <polygon class="fil7" points="1811.43,1123.73 1482.48,794.78 1482.48,859.67 1811.43,1188.61 "/>
     <polygon class="fil7" points="1811.43,1200.6 1482.48,871.66 1482.48,936.54 1811.43,1265.49 "/>
     <polygon class="fil7" points="1811.43,1277.48 1482.48,948.54 1482.48,1013.42 1811.43,1342.37 "/>
     <polygon class="fil7" points="1811.43,1354.36 1482.48,1025.41 1482.48,1090.3 1811.43,1419.25 "/>
     <polygon class="fil7" points="1811.43,1431.24 1482.48,1102.29 1482.48,1167.18 1811.43,1496.13 "/>
     <polygon class="fil7" points="1811.43,1508.12 1482.48,1179.17 1482.48,1244.06 1811.43,1573.01 "/>
     <polygon class="fil7" points="1811.43,1585 1482.48,1256.05 1482.48,1320.93 1811.43,1649.88 "/>
     <polygon class="fil7" points="1811.43,1661.87 1482.48,1332.93 1482.48,1397.81 1811.43,1726.76 "/>
     <polygon class="fil7" points="1811.43,1738.75 1482.48,1409.8 1482.48,1474.69 1811.43,1803.64 "/>
     <polygon class="fil7" points="1811.43,1815.63 1482.48,1486.68 1482.48,1551.57 1811.43,1880.52 "/>
     <polygon class="fil7" points="1811.43,1892.51 1482.48,1563.56 1482.48,1628.45 1811.43,1957.4 "/>
     <polygon class="fil7" points="1811.43,1969.39 1482.48,1640.44 1482.48,1705.33 1811.43,2034.27 "/>
     <polygon class="fil7" points="1811.43,2046.26 1482.48,1717.32 1482.48,1782.2 1811.43,2111.15 "/>
     <polygon class="fil7" points="1811.43,2123.14 1482.48,1794.19 1482.48,1859.08 1811.43,2188.03 "/>
     <polygon class="fil7" points="1811.43,2200.02 1482.48,1871.07 1482.48,1935.96 1811.43,2264.91 "/>
     <polygon class="fil7" points="1811.43,2276.9 1482.48,1947.95 1482.48,2012.84 1811.43,2341.79 "/>
     <polygon class="fil7" points="1811.43,2353.78 1482.48,2024.83 1482.48,2089.72 1811.43,2418.66 "/>
     <polygon class="fil7" points="1811.43,2430.66 1482.48,2101.71 1482.48,2166.6 1811.43,2495.54 "/>
     <polygon class="fil7" points="1811.43,2507.53 1482.48,2178.59 1482.48,2243.47 1811.43,2572.42 "/>
     <polygon class="fil7" points="1811.43,2584.41 1482.48,2255.46 1482.48,2320.35 1811.43,2649.3 "/>
    </g>
    <path class="fil5" style="mask:url(#id6)" d="M1481.04 24.56l0 2231.52m-337.84 -1919.84l337.84 -311.68 0 64.89 -337.84 311.75 0 -64.96zm0 76.87l337.84 -311.67 0 64.89 -337.84 311.74 0 -64.96zm0 76.88l337.84 -311.67 0 64.88 -337.84 311.75 0 -64.96zm0 76.88l337.84 -311.68 0 64.89 -337.84 311.75 0 -64.96zm0 76.88l337.84 -311.68 0 64.89 -337.84 311.75 0 -64.96zm0 76.88l337.84 -311.68 0 64.89 -337.84 311.75 0 -64.96zm0 76.87l337.84 -311.67 0 64.89 -337.84 311.75 0 -64.97zm0 76.88l337.84 -311.67 0 64.89 -337.84 311.74 0 -64.96zm0 76.88l337.84 -311.67 0 64.88 -337.84 311.75 0 -64.96zm0 76.88l337.84 -311.68 0 64.89 -337.84 311.75 0 -64.96zm0 76.88l337.84 -311.68 0 64.89 -337.84 311.75 0 -64.96zm0 76.87l337.84 -311.67 0 64.89 -337.84 311.75 0 -64.97zm0 76.88l337.84 -311.67 0 64.89 -337.84 311.74 0 -64.96zm0 76.88l337.84 -311.67 0 64.88 -337.84 311.75 0 -64.96zm0 76.88l337.84 -311.68 0 64.89 -337.84 311.75 0 -64.96zm0 76.88l337.84 -311.68 0 64.89 -337.84 311.75 0 -64.96zm0 76.88l337.84 -311.68 0 64.89 -337.84 311.75 0 -64.96zm0 76.87l337.84 -311.67 0 64.89 -337.84 311.75 0 -64.97zm0 76.88l337.84 -311.67 0 64.89 -337.84 311.74 0 -64.96zm0 76.88l337.84 -311.67 0 64.88 -337.84 311.75 0 -64.96zm0 76.88l337.84 -311.68 0 64.89 -337.84 311.75 0 -64.96zm0 76.88l337.84 -311.68 0 64.89 -337.84 311.75 0 -64.96zm0 76.87l337.84 -311.67 0 64.89 -337.84 311.75 0 -64.97zm0 76.88l337.84 -311.67 0 64.89 -337.84 311.74 0 -64.96zm0 76.88l337.84 -311.67 0 64.88 -337.84 311.75 0 -64.96zm0 76.88l337.84 -311.68 0 64.89 -337.84 311.75 0 -64.96zm0 76.88l337.84 -311.68 0 64.89 -337.84 311.75 0 -64.96zm0 76.88l337.84 -311.68 0 64.89 -337.84 311.75 0 -64.96zm0 76.87l337.84 -311.67 0 64.89 -337.84 311.75 0 -64.97zm0 76.88l337.84 -311.67 0 64.88 -337.84 311.75 0 -64.96z"/>
    <path class="fil6" style="mask:url(#id8)" d="M1811.43 354.94l-328.95 -328.94 0 64.88 328.95 328.95 0 -64.89zm0 76.88l-328.95 -328.95 0 64.89 328.95 328.95 0 -64.89zm0 76.88l-328.95 -328.95 0 64.89 328.95 328.95 0 -64.89zm0 76.88l-328.95 -328.95 0 64.89 328.95 328.95 0 -64.89zm0 76.88l-328.95 -328.95 0 64.89 328.95 328.95 0 -64.89zm0 76.88l-328.95 -328.95 0 64.88 328.95 328.95 0 -64.88zm0 76.87l-328.95 -328.95 0 64.89 328.95 328.95 0 -64.89zm0 76.88l-328.95 -328.95 0 64.89 328.95 328.95 0 -64.89zm0 76.88l-328.95 -328.95 0 64.89 328.95 328.95 0 -64.89zm0 76.88l-328.95 -328.95 0 64.89 328.95 328.95 0 -64.89zm0 76.88l-328.95 -328.95 0 64.89 328.95 328.94 0 -64.88zm0 76.87l-328.95 -328.94 0 64.88 328.95 328.95 0 -64.89zm0 76.88l-328.95 -328.94 0 64.88 328.95 328.95 0 -64.89zm0 76.88l-328.95 -328.95 0 64.89 328.95 328.95 0 -64.89zm0 76.88l-328.95 -328.95 0 64.89 328.95 328.95 0 -64.89zm0 76.88l-328.95 -328.95 0 64.89 328.95 328.95 0 -64.89zm0 76.88l-328.95 -328.95 0 64.88 328.95 328.95 0 -64.88zm0 76.87l-328.95 -328.94 0 64.88 328.95 328.95 0 -64.89zm0 76.88l-328.95 -328.95 0 64.89 328.95 328.95 0 -64.89zm0 76.88l-328.95 -328.95 0 64.89 328.95 328.95 0 -64.89zm0 76.88l-328.95 -328.95 0 64.89 328.95 328.95 0 -64.89zm0 76.88l-328.95 -328.95 0 64.89 328.95 328.94 0 -64.88zm0 76.87l-328.95 -328.94 0 64.88 328.95 328.95 0 -64.89zm0 76.88l-328.95 -328.95 0 64.89 328.95 328.95 0 -64.89zm0 76.88l-328.95 -328.95 0 64.89 328.95 328.95 0 -64.89zm0 76.88l-328.95 -328.95 0 64.89 328.95 328.95 0 -64.89zm0 76.88l-328.95 -328.95 0 64.89 328.95 328.94 0 -64.88zm0 76.88l-328.95 -328.95 0 64.89 328.95 328.94 0 -64.88zm0 76.87l-328.95 -328.94 0 64.88 328.95 328.95 0 -64.89zm0 76.88l-328.95 -328.95 0 64.89 328.95 328.95 0 -64.89z"/>
   </g>
  </g>
  <polygon class="fil1" points="1482.48,26 1809.99,353.51 1809.99,804.07 1809.99,2256.08 1481.04,2256.08 1143.21,2256.08 1143.21,1595.9 1143.21,1380.1 1143.21,335.73 1481.04,24.56 "/>
  <path class="fil8" d="M1144.13 1417.23l0 185.41c-154.31,188.36 -228.96,402.21 -171.32,658.39 -85.98,15.84 -243.23,-19.23 -186.67,-298.67 61.47,-205.02 185.12,-385.65 357.99,-545.13z"/>
  <path class="fil2" style="mask:url(#id10)" d="M1144.13 1417.23l0 185.43c-154.3,188.36 -228.95,402.2 -171.32,658.37 -85.98,15.84 -243.23,-19.23 -186.67,-298.67 61.47,-205.02 185.12,-385.65 357.99,-545.13z"/>
  <path class="fil9" d="M1144.13 1412.46l0 7.11c-169.53,158.02 -293.73,344.77 -349.79,574.74 -75.03,429.14 541.03,254.07 781.93,78.99l-71.08 -67.14 7.89 -59.23c223.14,5.62 449.56,-16.09 655.56,-71.09l43.44 35.54c-234.25,80.34 -462.21,104.05 -687.32,102.03l106.35 116.64c-257.29,148.65 -761.58,331.61 -864.49,65.18 -77.52,-259.38 127.62,-550.43 377.51,-782.77z"/>
  <path class="fil2" style="mask:url(#id12)" d="M1144.13 1412.46l0 7.11c-169.53,158.02 -293.73,344.77 -349.79,574.74 -75.03,429.14 541.03,254.07 781.93,78.99l-71.08 -67.14 7.89 -59.23c223.14,5.62 449.56,-16.09 655.56,-71.09l43.44 35.54c-234.25,80.34 -462.21,104.05 -687.32,102.03l106.35 116.64c-257.29,148.65 -761.58,331.61 -864.49,65.18 -77.52,-259.38 127.62,-550.43 377.51,-782.77z"/>
  <path class="fil2" style="mask:url(#id14)" d="M1144.13 1412.46l0 7.11c-169.53,158.02 -293.73,344.77 -349.79,574.74 -75.03,429.14 541.03,254.07 781.93,78.99l-71.08 -67.14 7.89 -59.23c223.14,5.62 449.56,-16.09 655.56,-71.09l43.44 35.54c-234.25,80.34 -462.21,104.05 -687.32,102.03l106.35 116.64c-257.29,148.65 -761.58,331.61 -864.49,65.18 -77.52,-259.38 127.62,-550.43 377.51,-782.77z"/>
  <path class="fil0" style="mask:url(#id16)" d="M1144.13 1412.46l0 7.11c-169.53,158.02 -293.73,344.77 -349.79,574.74 -75.03,429.14 541.03,254.07 781.93,78.99l-71.08 -67.14 7.89 -59.23c223.14,5.62 449.56,-16.09 655.56,-71.09l43.44 35.54c-234.25,80.34 -462.21,104.05 -687.32,102.03l106.35 116.64c-257.29,148.65 -761.58,331.61 -864.49,65.18 -77.52,-259.38 127.62,-550.43 377.51,-782.77z"/>
  <path class="fil9" d="M2212.4 1911.91c-76.04,195.22 -159.88,384.21 -265.27,555.96l-76.19 -74.93c-429.69,203.99 -783.6,177.95 -1049.07,-116.56 170.08,119.18 484.58,42.11 813.74,-145.15l-103.36 -116.57c232.4,-3 459.48,-35.24 680.15,-102.75z"/>
  <path class="fil2" style="mask:url(#id18)" d="M2212.4 1911.91c-76.04,195.22 -159.88,384.21 -265.27,555.96l-76.19 -74.93c-429.69,203.99 -783.6,177.95 -1049.07,-116.56 170.08,119.18 484.58,42.11 813.74,-145.15l-103.36 -116.57c232.4,-3 459.48,-35.24 680.15,-102.75z"/>
  <path class="fil10" d="M814.65 2267.27c200.11,166.95 647.22,-36.59 816.46,-137.22l-99.49 -113.21c206.98,8.01 451.9,-16.89 679.46,-104.94 -150.94,291.59 -1094.55,732.73 -1396.43,355.37z"/>
  <path class="fil11" d="M2305.15 975.56c256.19,68.44 262.03,406.85 54.45,830.09 200.25,-299.81 242.11,-558.89 125.58,-777.24 -52.66,-60.71 -113.18,-99.41 -180.03,-120.38l0 67.53z"/>
  <path class="fil2" style="mask:url(#id20)" d="M2305.15 975.59c256.17,68.45 262.03,406.83 54.45,830.06 200.25,-299.81 242.11,-558.89 125.58,-777.24 -52.66,-60.71 -113.18,-99.41 -180.03,-120.38l0 67.56z"/>
  <path class="fil9" d="M2305.15 900.05c154.18,43.67 264.88,169.61 241.81,440.54 -8.57,-255.87 -102.26,-379.94 -241.81,-422.24l0 -18.3z"/>
  <path class="fil2" style="mask:url(#id22)" d="M2305.15 900.05c154.18,43.67 264.88,169.61 241.81,440.54 -8.57,-255.87 -102.26,-379.94 -241.81,-422.24l0 -18.3z"/>
  <path class="fil2" style="mask:url(#id24)" d="M2305.15 900.05c154.18,43.67 264.88,169.61 241.81,440.54 -8.57,-255.87 -102.26,-379.94 -241.81,-422.24l0 -18.3z"/>
  <path class="fil12" d="M2305.15 900.05c154.18,43.67 264.88,169.61 241.81,440.54 -8.57,-255.87 -102.26,-379.94 -241.81,-422.24l0 -18.3z"/>
  <path class="fil1 str1" d="M2057.89 575.74c27.33,27.34 240.69,237.75 245.22,248.83 0.63,1.56 4.07,66.1 4.58,73.92 91.66,38.7 151.14,66.84 198.87,161.65 39.94,79.31 46.07,167.49 42.21,254.73 -18.56,154.23 -89.4,353.17 -181.15,478.72 -28.63,39.17 29.29,-73.63 30.94,-77.27 22.26,-48.96 42.17,-102.41 59.78,-153.26 56.2,-182.15 107.86,-492.38 -123.77,-578.01 -37.6,-13.9 -28.85,-14.87 -28.94,24.47 -0.67,387.15 7.05,774.17 0.93,1161.33 -0.25,14.28 -0.16,58.58 -3.03,71.44 -4.37,14.01 -11.41,11.87 -29.04,13.43 -56.87,5.06 -130.48,0.64 -189.26,0.36l-22.02 0c-19.11,39.26 -103.17,210.85 -116.08,211.79 -17,1.23 -56.17,-82.96 -76.19,-74.93 -196.57,78.87 -128.22,56.82 -196.57,78.87 -326.67,105.4 -614.85,64.46 -852.5,-195.43 0.27,0.19 0.54,0.38 0.81,0.56 -2.12,-2.45 -4.2,-4.94 -6.26,-7.47 -21.17,-19.4 -38.09,-43.91 -49.8,-74.24 -77.42,-259.06 127.11,-549.71 376.59,-781.91l0 -33.22c0,-93.26 1.43,-1038.93 0.56,-1044.12 -0.78,-4.71 306.44,-283.02 337.27,-311.42l328.95 328.95 0 450.56 247.9 -228.33z"/>
 </g>
</svg>
